<?xml version="1.0" encoding="utf-8"?>
<svg contentScriptType="text/ecmascript" xmlns:xlink="http://www.w3.org/1999/xlink" zoomAndPan="magnify" contentStyleType="text/css" viewBox="87.0 225.5 917.0000000000003 550.4999999999997" xmlns:cacoo="http://cacoo.com/" preserveAspectRatio="xMidYMin meet" xmlns="http://www.w3.org/2000/svg" version="1.1"><defs><filter xlink:actuate="onLoad" xlink:type="simple" id="id1" xlink:show="other" filterUnits="userSpaceOnUse" xmlns:xlink="http://www.w3.org/1999/xlink"><feGaussianBlur stdDeviation="3.0" result="blur" in="SourceAlpha"/><feOffset dx="4.0" dy="4.0" result="offsetBlur" in="blur"/><feComponentTransfer result="componentOffsetBlur" in="offsetBlur"><feFuncR type="linear" intercept="0.0" slope="0"/><feFuncG type="linear" intercept="0.0" slope="0"/><feFuncB type="linear" intercept="0.0" slope="0"/><feFuncA type="linear" intercept="0" slope="0.4"/></feComponentTransfer></filter><filter xlink:actuate="onLoad" xlink:type="simple" id="id4" xlink:show="other" filterUnits="userSpaceOnUse" xmlns:xlink="http://www.w3.org/1999/xlink"><feGaussianBlur stdDeviation="3.0" result="blur" in="SourceAlpha"/><feOffset dx="4.0" dy="4.0" result="offsetBlur" in="blur"/><feComponentTransfer result="componentOffsetBlur" in="offsetBlur"><feFuncR type="linear" intercept="0.0" slope="0"/><feFuncG type="linear" intercept="0.0" slope="0"/><feFuncB type="linear" intercept="0.0" slope="0"/><feFuncA type="linear" intercept="0" slope="0.4"/></feComponentTransfer></filter><filter xlink:actuate="onLoad" xlink:type="simple" id="id7" xlink:show="other" filterUnits="userSpaceOnUse" xmlns:xlink="http://www.w3.org/1999/xlink"><feGaussianBlur stdDeviation="3.0" result="blur" in="SourceAlpha"/><feOffset dx="4.0" dy="4.0" result="offsetBlur" in="blur"/><feComponentTransfer result="componentOffsetBlur" in="offsetBlur"><feFuncR type="linear" intercept="0.0" slope="0"/><feFuncG type="linear" intercept="0.0" slope="0"/><feFuncB type="linear" intercept="0.0" slope="0"/><feFuncA type="linear" intercept="0" slope="0.4"/></feComponentTransfer></filter><marker refX="14.0" refY="7.0" markerUnits="userSpaceOnUse" orient="auto" id="id10" markerHeight="14.0" viewBox="0 0 14.0 14.0" preserveAspectRatio="xMidYMid meet" markerWidth="14.0" overflow="visible"><path fill="none" d="M0 0 L14.0 7.0 L0 14.0" stroke-width="2.0" stroke-linejoin="round" stroke-linecap="round" stroke="#286bcc"/></marker><marker refX="14.0" refY="7.0" markerUnits="userSpaceOnUse" orient="auto" id="id11" markerHeight="14.0" viewBox="0 0 14.0 14.0" preserveAspectRatio="xMidYMid meet" markerWidth="14.0" overflow="visible"><path fill="none" d="M0 0 L14.0 7.0 L0 14.0" stroke-width="2.0" stroke-linejoin="round" stroke-linecap="round" stroke="#286bcc"/></marker><marker refX="14.0" refY="7.0" markerUnits="userSpaceOnUse" orient="auto" id="id12" markerHeight="14.0" viewBox="0 0 14.0 14.0" preserveAspectRatio="xMidYMid meet" markerWidth="14.0" overflow="visible"><path fill="none" d="M0 0 L14.0 7.0 L0 14.0" stroke-width="2.0" stroke-linejoin="round" stroke-linecap="round" stroke="#286bcc"/></marker><marker refX="14.0" refY="7.0" markerUnits="userSpaceOnUse" orient="auto" id="id13" markerHeight="14.0" viewBox="0 0 14.0 14.0" preserveAspectRatio="xMidYMid meet" markerWidth="14.0" overflow="visible"><path fill="none" d="M0 0 L14.0 7.0 L0 14.0" stroke-width="2.0" stroke-linejoin="round" stroke-linecap="round" stroke="#286bcc"/></marker><marker refX="14.0" refY="7.0" markerUnits="userSpaceOnUse" orient="auto" id="id14" markerHeight="14.0" viewBox="0 0 14.0 14.0" preserveAspectRatio="xMidYMid meet" markerWidth="14.0" overflow="visible"><path fill="none" d="M0 0 L14.0 7.0 L0 14.0" stroke-width="2.0" stroke-linejoin="round" stroke-linecap="round" stroke="#286bcc"/></marker><filter xlink:actuate="onLoad" xlink:type="simple" id="id15" xlink:show="other" filterUnits="userSpaceOnUse" xmlns:xlink="http://www.w3.org/1999/xlink"><feGaussianBlur stdDeviation="3.0" result="blur" in="SourceAlpha"/><feOffset dx="4.0" dy="4.0" result="offsetBlur" in="blur"/><feComponentTransfer result="componentOffsetBlur" in="offsetBlur"><feFuncR type="linear" intercept="0.0" slope="0"/><feFuncG type="linear" intercept="0.0" slope="0"/><feFuncB type="linear" intercept="0.0" slope="0"/><feFuncA type="linear" intercept="0" slope="0.4"/></feComponentTransfer></filter><filter xlink:actuate="onLoad" xlink:type="simple" id="id18" xlink:show="other" filterUnits="userSpaceOnUse" xmlns:xlink="http://www.w3.org/1999/xlink"><feGaussianBlur stdDeviation="3.0" result="blur" in="SourceAlpha"/><feOffset dx="4.0" dy="4.0" result="offsetBlur" in="blur"/><feComponentTransfer result="componentOffsetBlur" in="offsetBlur"><feFuncR type="linear" intercept="0.0" slope="0"/><feFuncG type="linear" intercept="0.0" slope="0"/><feFuncB type="linear" intercept="0.0" slope="0"/><feFuncA type="linear" intercept="0" slope="0.4"/></feComponentTransfer></filter><filter xlink:actuate="onLoad" xlink:type="simple" id="id21" xlink:show="other" filterUnits="userSpaceOnUse" xmlns:xlink="http://www.w3.org/1999/xlink"><feGaussianBlur stdDeviation="3.0" result="blur" in="SourceAlpha"/><feOffset dx="4.0" dy="4.0" result="offsetBlur" in="blur"/><feComponentTransfer result="componentOffsetBlur" in="offsetBlur"><feFuncR type="linear" intercept="0.0" slope="0"/><feFuncG type="linear" intercept="0.0" slope="0"/><feFuncB type="linear" intercept="0.0" slope="0"/><feFuncA type="linear" intercept="0" slope="0.4"/></feComponentTransfer></filter><marker refX="14.0" refY="7.0" markerUnits="userSpaceOnUse" orient="auto" id="id24" markerHeight="14.0" viewBox="0 0 14.0 14.0" preserveAspectRatio="xMidYMid meet" markerWidth="14.0" overflow="visible"><path fill="none" d="M0 0 L14.0 7.0 L0 14.0" stroke-width="2.0" stroke-linejoin="round" stroke-linecap="round" stroke="#286bcc"/></marker><marker refX="14.0" refY="7.0" markerUnits="userSpaceOnUse" orient="auto" id="id25" markerHeight="14.0" viewBox="0 0 14.0 14.0" preserveAspectRatio="xMidYMid meet" markerWidth="14.0" overflow="visible"><path fill="none" d="M0 0 L14.0 7.0 L0 14.0" stroke-width="2.0" stroke-linejoin="round" stroke-linecap="round" stroke="#286bcc"/></marker><marker refX="14.0" refY="7.0" markerUnits="userSpaceOnUse" orient="auto" id="id26" markerHeight="14.0" viewBox="0 0 14.0 14.0" preserveAspectRatio="xMidYMid meet" markerWidth="14.0" overflow="visible"><path fill="none" d="M0 0 L14.0 7.0 L0 14.0" stroke-width="2.0" stroke-linejoin="round" stroke-linecap="round" stroke="#286bcc"/></marker><marker refX="14.0" refY="7.0" markerUnits="userSpaceOnUse" orient="auto" id="id27" markerHeight="14.0" viewBox="0 0 14.0 14.0" preserveAspectRatio="xMidYMid meet" markerWidth="14.0" overflow="visible"><path fill="none" d="M0 0 L14.0 7.0 L0 14.0" stroke-width="2.0" stroke-linejoin="round" stroke-linecap="round" stroke="#286bcc"/></marker><marker refX="14.0" refY="7.0" markerUnits="userSpaceOnUse" orient="auto" id="id28" markerHeight="14.0" viewBox="0 0 14.0 14.0" preserveAspectRatio="xMidYMid meet" markerWidth="14.0" overflow="visible"><path fill="none" d="M0 0 L14.0 7.0 L0 14.0" stroke-width="2.0" stroke-linejoin="round" stroke-linecap="round" stroke="#286bcc"/></marker><filter xlink:actuate="onLoad" xlink:type="simple" id="id30" xlink:show="other" filterUnits="userSpaceOnUse" xmlns:xlink="http://www.w3.org/1999/xlink"><feGaussianBlur stdDeviation="3.0" result="blur" in="SourceAlpha"/><feOffset dx="4.0" dy="4.0" result="offsetBlur" in="blur"/><feComponentTransfer result="componentOffsetBlur" in="offsetBlur"><feFuncR type="linear" intercept="0.0" slope="0"/><feFuncG type="linear" intercept="0.0" slope="0"/><feFuncB type="linear" intercept="0.0" slope="0"/><feFuncA type="linear" intercept="0" slope="0.4"/></feComponentTransfer></filter><filter xlink:actuate="onLoad" xlink:type="simple" id="id38" xlink:show="other" filterUnits="userSpaceOnUse" xmlns:xlink="http://www.w3.org/1999/xlink"><feGaussianBlur stdDeviation="3.0" result="blur" in="SourceAlpha"/><feOffset dx="4.0" dy="4.0" result="offsetBlur" in="blur"/><feComponentTransfer result="componentOffsetBlur" in="offsetBlur"><feFuncR type="linear" intercept="0.0" slope="0"/><feFuncG type="linear" intercept="0.0" slope="0"/><feFuncB type="linear" intercept="0.0" slope="0"/><feFuncA type="linear" intercept="0" slope="0.4"/></feComponentTransfer></filter><filter xlink:actuate="onLoad" xlink:type="simple" id="id41" xlink:show="other" filterUnits="userSpaceOnUse" xmlns:xlink="http://www.w3.org/1999/xlink"><feGaussianBlur stdDeviation="3.0" result="blur" in="SourceAlpha"/><feOffset dx="4.0" dy="4.0" result="offsetBlur" in="blur"/><feComponentTransfer result="componentOffsetBlur" in="offsetBlur"><feFuncR type="linear" intercept="0.0" slope="0"/><feFuncG type="linear" intercept="0.0" slope="0"/><feFuncB type="linear" intercept="0.0" slope="0"/><feFuncA type="linear" intercept="0" slope="0.4"/></feComponentTransfer></filter><filter xlink:actuate="onLoad" xlink:type="simple" id="id44" xlink:show="other" filterUnits="userSpaceOnUse" xmlns:xlink="http://www.w3.org/1999/xlink"><feGaussianBlur stdDeviation="3.0" result="blur" in="SourceAlpha"/><feOffset dx="4.0" dy="4.0" result="offsetBlur" in="blur"/><feComponentTransfer result="componentOffsetBlur" in="offsetBlur"><feFuncR type="linear" intercept="0.0" slope="0"/><feFuncG type="linear" intercept="0.0" slope="0"/><feFuncB type="linear" intercept="0.0" slope="0"/><feFuncA type="linear" intercept="0" slope="0.4"/></feComponentTransfer></filter><marker refX="14.0" refY="7.0" markerUnits="userSpaceOnUse" orient="auto" id="id47" markerHeight="14.0" viewBox="0 0 14.0 14.0" preserveAspectRatio="xMidYMid meet" markerWidth="14.0" overflow="visible"><path fill="none" d="M0 0 L14.0 7.0 L0 14.0" stroke-width="2.0" stroke-linejoin="round" stroke-linecap="round" stroke="#286bcc"/></marker><marker refX="14.0" refY="7.0" markerUnits="userSpaceOnUse" orient="auto" id="id48" markerHeight="14.0" viewBox="0 0 14.0 14.0" preserveAspectRatio="xMidYMid meet" markerWidth="14.0" overflow="visible"><path fill="none" d="M0 0 L14.0 7.0 L0 14.0" stroke-width="2.0" stroke-linejoin="round" stroke-linecap="round" stroke="#286bcc"/></marker><marker refX="14.0" refY="7.0" markerUnits="userSpaceOnUse" orient="auto" id="id49" markerHeight="14.0" viewBox="0 0 14.0 14.0" preserveAspectRatio="xMidYMid meet" markerWidth="14.0" overflow="visible"><path fill="none" d="M0 0 L14.0 7.0 L0 14.0" stroke-width="2.0" stroke-linejoin="round" stroke-linecap="round" stroke="#286bcc"/></marker><marker refX="14.0" refY="7.0" markerUnits="userSpaceOnUse" orient="auto" id="id50" markerHeight="14.0" viewBox="0 0 14.0 14.0" preserveAspectRatio="xMidYMid meet" markerWidth="14.0" overflow="visible"><path fill="none" d="M0 0 L14.0 7.0 L0 14.0" stroke-width="2.0" stroke-linejoin="round" stroke-linecap="round" stroke="#286bcc"/></marker><marker refX="14.0" refY="7.0" markerUnits="userSpaceOnUse" orient="auto" id="id51" markerHeight="14.0" viewBox="0 0 14.0 14.0" preserveAspectRatio="xMidYMid meet" markerWidth="14.0" overflow="visible"><path fill="none" d="M0 0 L14.0 7.0 L0 14.0" stroke-width="2.0" stroke-linejoin="round" stroke-linecap="round" stroke="#286bcc"/></marker><filter xlink:actuate="onLoad" xlink:type="simple" id="id53" xlink:show="other" filterUnits="userSpaceOnUse" xmlns:xlink="http://www.w3.org/1999/xlink"><feGaussianBlur stdDeviation="3.0" result="blur" in="SourceAlpha"/><feOffset dx="4.0" dy="4.0" result="offsetBlur" in="blur"/><feComponentTransfer result="componentOffsetBlur" in="offsetBlur"><feFuncR type="linear" intercept="0.0" slope="0"/><feFuncG type="linear" intercept="0.0" slope="0"/><feFuncB type="linear" intercept="0.0" slope="0"/><feFuncA type="linear" intercept="0" slope="0.4"/></feComponentTransfer></filter><filter xlink:actuate="onLoad" xlink:type="simple" id="id61" xlink:show="other" filterUnits="userSpaceOnUse" xmlns:xlink="http://www.w3.org/1999/xlink"><feGaussianBlur stdDeviation="3.0" result="blur" in="SourceAlpha"/><feOffset dx="4.0" dy="4.0" result="offsetBlur" in="blur"/><feComponentTransfer result="componentOffsetBlur" in="offsetBlur"><feFuncR type="linear" intercept="0.0" slope="0"/><feFuncG type="linear" intercept="0.0" slope="0"/><feFuncB type="linear" intercept="0.0" slope="0"/><feFuncA type="linear" intercept="0" slope="0.4"/></feComponentTransfer></filter><filter xlink:actuate="onLoad" xlink:type="simple" id="id64" xlink:show="other" filterUnits="userSpaceOnUse" xmlns:xlink="http://www.w3.org/1999/xlink"><feGaussianBlur stdDeviation="3.0" result="blur" in="SourceAlpha"/><feOffset dx="4.0" dy="4.0" result="offsetBlur" in="blur"/><feComponentTransfer result="componentOffsetBlur" in="offsetBlur"><feFuncR type="linear" intercept="0.0" slope="0"/><feFuncG type="linear" intercept="0.0" slope="0"/><feFuncB type="linear" intercept="0.0" slope="0"/><feFuncA type="linear" intercept="0" slope="0.4"/></feComponentTransfer></filter><filter xlink:actuate="onLoad" xlink:type="simple" id="id67" xlink:show="other" filterUnits="userSpaceOnUse" xmlns:xlink="http://www.w3.org/1999/xlink"><feGaussianBlur stdDeviation="3.0" result="blur" in="SourceAlpha"/><feOffset dx="4.0" dy="4.0" result="offsetBlur" in="blur"/><feComponentTransfer result="componentOffsetBlur" in="offsetBlur"><feFuncR type="linear" intercept="0.0" slope="0"/><feFuncG type="linear" intercept="0.0" slope="0"/><feFuncB type="linear" intercept="0.0" slope="0"/><feFuncA type="linear" intercept="0" slope="0.4"/></feComponentTransfer></filter><marker refX="14.0" refY="7.0" markerUnits="userSpaceOnUse" orient="auto" id="id70" markerHeight="14.0" viewBox="0 0 14.0 14.0" preserveAspectRatio="xMidYMid meet" markerWidth="14.0" overflow="visible"><path fill="none" d="M0 0 L14.0 7.0 L0 14.0" stroke-width="2.0" stroke-linejoin="round" stroke-linecap="round" stroke="#286bcc"/></marker><marker refX="14.0" refY="7.0" markerUnits="userSpaceOnUse" orient="auto" id="id71" markerHeight="14.0" viewBox="0 0 14.0 14.0" preserveAspectRatio="xMidYMid meet" markerWidth="14.0" overflow="visible"><path fill="none" d="M0 0 L14.0 7.0 L0 14.0" stroke-width="2.0" stroke-linejoin="round" stroke-linecap="round" stroke="#286bcc"/></marker><marker refX="14.0" refY="7.0" markerUnits="userSpaceOnUse" orient="auto" id="id72" markerHeight="14.0" viewBox="0 0 14.0 14.0" preserveAspectRatio="xMidYMid meet" markerWidth="14.0" overflow="visible"><path fill="none" d="M0 0 L14.0 7.0 L0 14.0" stroke-width="2.0" stroke-linejoin="round" stroke-linecap="round" stroke="#286bcc"/></marker><marker refX="14.0" refY="7.0" markerUnits="userSpaceOnUse" orient="auto" id="id73" markerHeight="14.0" viewBox="0 0 14.0 14.0" preserveAspectRatio="xMidYMid meet" markerWidth="14.0" overflow="visible"><path fill="none" d="M0 0 L14.0 7.0 L0 14.0" stroke-width="2.0" stroke-linejoin="round" stroke-linecap="round" stroke="#286bcc"/></marker><marker refX="14.0" refY="7.0" markerUnits="userSpaceOnUse" orient="auto" id="id74" markerHeight="14.0" viewBox="0 0 14.0 14.0" preserveAspectRatio="xMidYMid meet" markerWidth="14.0" overflow="visible"><path fill="none" d="M0 0 L14.0 7.0 L0 14.0" stroke-width="2.0" stroke-linejoin="round" stroke-linecap="round" stroke="#286bcc"/></marker><filter xlink:actuate="onLoad" xlink:type="simple" id="id76" xlink:show="other" filterUnits="userSpaceOnUse" xmlns:xlink="http://www.w3.org/1999/xlink"><feGaussianBlur stdDeviation="3.0" result="blur" in="SourceAlpha"/><feOffset dx="4.0" dy="4.0" result="offsetBlur" in="blur"/><feComponentTransfer result="componentOffsetBlur" in="offsetBlur"><feFuncR type="linear" intercept="0.0" slope="0"/><feFuncG type="linear" intercept="0.0" slope="0"/><feFuncB type="linear" intercept="0.0" slope="0"/><feFuncA type="linear" intercept="0" slope="0.4"/></feComponentTransfer></filter><filter xlink:actuate="onLoad" xlink:type="simple" id="id84" xlink:show="other" filterUnits="userSpaceOnUse" xmlns:xlink="http://www.w3.org/1999/xlink"><feGaussianBlur stdDeviation="3.0" result="blur" in="SourceAlpha"/><feOffset dx="4.0" dy="4.0" result="offsetBlur" in="blur"/><feComponentTransfer result="componentOffsetBlur" in="offsetBlur"><feFuncR type="linear" intercept="0.0" slope="0"/><feFuncG type="linear" intercept="0.0" slope="0"/><feFuncB type="linear" intercept="0.0" slope="0"/><feFuncA type="linear" intercept="0" slope="0.4"/></feComponentTransfer></filter></defs><g><g transform="translate(581.0 341.0)"><use xlink:href="#id2" xlink:actuate="onLoad" xlink:type="simple" xlink:show="embed" xmlns:xlink="http://www.w3.org/1999/xlink" filter="url(#id1)"/></g><g transform="translate(749.5 341.0)"><use xlink:href="#id5" xlink:actuate="onLoad" xlink:type="simple" xlink:show="embed" xmlns:xlink="http://www.w3.org/1999/xlink" filter="url(#id4)"/></g><g transform="translate(922.0 341.0)"><use xlink:href="#id8" xlink:actuate="onLoad" xlink:type="simple" xlink:show="embed" xmlns:xlink="http://www.w3.org/1999/xlink" filter="url(#id7)"/></g><g transform="translate(115.0 340.5)"><use xlink:href="#id16" xlink:actuate="onLoad" xlink:type="simple" xlink:show="embed" xmlns:xlink="http://www.w3.org/1999/xlink" filter="url(#id15)"/></g><g transform="translate(283.5 340.5)"><use xlink:href="#id19" xlink:actuate="onLoad" xlink:type="simple" xlink:show="embed" xmlns:xlink="http://www.w3.org/1999/xlink" filter="url(#id18)"/></g><g transform="translate(456.0 340.5)"><use xlink:href="#id22" xlink:actuate="onLoad" xlink:type="simple" xlink:show="embed" xmlns:xlink="http://www.w3.org/1999/xlink" filter="url(#id21)"/></g><g transform="translate(241.82905544147846 240.5)"><use xlink:href="#id31" xlink:actuate="onLoad" xlink:type="simple" xlink:show="embed" xmlns:xlink="http://www.w3.org/1999/xlink" filter="url(#id30)"/></g><g transform="translate(115.0 610.0)"><use xlink:href="#id39" xlink:actuate="onLoad" xlink:type="simple" xlink:show="embed" xmlns:xlink="http://www.w3.org/1999/xlink" filter="url(#id38)"/></g><g transform="translate(283.5 610.0)"><use xlink:href="#id42" xlink:actuate="onLoad" xlink:type="simple" xlink:show="embed" xmlns:xlink="http://www.w3.org/1999/xlink" filter="url(#id41)"/></g><g transform="translate(456.0 610.0)"><use xlink:href="#id45" xlink:actuate="onLoad" xlink:type="simple" xlink:show="embed" xmlns:xlink="http://www.w3.org/1999/xlink" filter="url(#id44)"/></g><g transform="translate(241.82905544147843 510.0)"><use xlink:href="#id54" xlink:actuate="onLoad" xlink:type="simple" xlink:show="embed" xmlns:xlink="http://www.w3.org/1999/xlink" filter="url(#id53)"/></g><g transform="translate(581.0000000000001 609.5)"><use xlink:href="#id62" xlink:actuate="onLoad" xlink:type="simple" xlink:show="embed" xmlns:xlink="http://www.w3.org/1999/xlink" filter="url(#id61)"/></g><g transform="translate(749.5000000000001 609.5)"><use xlink:href="#id65" xlink:actuate="onLoad" xlink:type="simple" xlink:show="embed" xmlns:xlink="http://www.w3.org/1999/xlink" filter="url(#id64)"/></g><g transform="translate(922.0000000000001 609.5)"><use xlink:href="#id68" xlink:actuate="onLoad" xlink:type="simple" xlink:show="embed" xmlns:xlink="http://www.w3.org/1999/xlink" filter="url(#id67)"/></g><g transform="translate(707.8290554414785 509.5)"><use xlink:href="#id77" xlink:actuate="onLoad" xlink:type="simple" xlink:show="embed" xmlns:xlink="http://www.w3.org/1999/xlink" filter="url(#id76)"/></g><g transform="translate(707.8290554414784 241.0)"><use xlink:href="#id85" xlink:actuate="onLoad" xlink:type="simple" xlink:show="embed" xmlns:xlink="http://www.w3.org/1999/xlink" filter="url(#id84)"/></g></g><g><g transform="translate(102.0 266.2172131147541)"><path fill="none" d="M421.0000000000002 225.28278688524563 L0.0 225.28278688524563 L0.0 0.0 L421.0000000000002 0.0 L421.0000000000002 225.28278688524563z" stroke-dasharray="6.0 6.0" stroke-width="2.0" stroke-linejoin="round" stroke="#5389d6"/><g transform="translate(1.0 1.0)"><clipPath id="id0"><path d="M0 0 L418.9999999999998 0 L418.9999999999998 223.28278688524597 L0 223.28278688524597z"/></clipPath><text font-size="12" clip-path="url(#id0)" text-decoration="none" fill="#000000" font-family="Arial,Arial" font-style="normal" font-weight="normal"/></g></g><g transform="translate(581.0 341.0)"><path fill="#5389d6" id="id2" fill-opacity="1.0" d="M50.0 25.0 Q50.0 35.354843 42.678 42.67725 Q35.35565 50.0 25.0 50.0 Q14.64475 50.0 7.3223763 42.677624 Q0.0 35.35525 0.0 25.0 Q0.0 14.64475 7.3223753 7.3223763 Q14.64475 0.0 25.0 0.0 Q35.355827 0.0 42.678 7.3223753 Q50.0 14.644578 50.0 25.0 L50.0 25.0z" stroke="none"/><g transform="translate(6.921999931335449 7.961000442504883)"><clipPath id="id3"><path d="M0 0 L36.15999984741211 0 L36.15999984741211 33.847999572753906 L0 33.847999572753906z"/></clipPath><text font-size="24" clip-path="url(#id3)" text-decoration="none" fill="#ffffff" font-family="Arial,Arial" font-style="normal" font-weight="bold"><tspan x="9.0" xml:space="preserve" y="25.423999786376953" textLength="17.0">A</tspan></text></g></g><g transform="translate(749.5 341.0)"><path fill="#5389d6" id="id5" fill-opacity="1.0" d="M50.0 25.0 Q50.0 35.354843 42.678 42.67725 Q35.35565 50.0 25.0 50.0 Q14.64475 50.0 7.3223763 42.677624 Q0.0 35.35525 0.0 25.0 Q0.0 14.64475 7.3223753 7.3223763 Q14.64475 0.0 25.0 0.0 Q35.355827 0.0 42.678 7.3223753 Q50.0 14.644578 50.0 25.0 L50.0 25.0z" stroke="none"/><g transform="translate(6.921999931335449 7.961000442504883)"><clipPath id="id6"><path d="M0 0 L36.15999984741211 0 L36.15999984741211 33.847999572753906 L0 33.847999572753906z"/></clipPath><text font-size="24" clip-path="url(#id6)" text-decoration="none" fill="#ffffff" font-family="Arial,Arial" font-style="normal" font-weight="bold"><tspan x="9.0" xml:space="preserve" y="25.423999786376953" textLength="17.0">B</tspan></text></g></g><g transform="translate(922.0 341.0)"><path fill="#5389d6" id="id8" fill-opacity="1.0" d="M50.0 25.0 Q50.0 35.354843 42.678 42.67725 Q35.35565 50.0 25.0 50.0 Q14.64475 50.0 7.3223763 42.677624 Q0.0 35.35525 0.0 25.0 Q0.0 14.64475 7.3223753 7.3223763 Q14.64475 0.0 25.0 0.0 Q35.355827 0.0 42.678 7.3223753 Q50.0 14.644578 50.0 25.0 L50.0 25.0z" stroke="none"/><g transform="translate(6.921999931335449 7.961000442504883)"><clipPath id="id9"><path d="M0 0 L36.15999984741211 0 L36.15999984741211 33.847999572753906 L0 33.847999572753906z"/></clipPath><text font-size="24" clip-path="url(#id9)" text-decoration="none" fill="#ffffff" font-family="Arial,Arial" font-style="normal" font-weight="bold"><tspan x="9.0" xml:space="preserve" y="25.423999786376953" textLength="17.0">C</tspan></text></g></g><path fill="none" marker-end="url(#id10)" d="M623.6776695296637 383.6776695296637 Q662.8131299669406 407.841468410926 689.0 408.0 Q716.0690425568824 408.16387213614445 756.8223304703363 383.6776695296637" stroke-width="2.0" stroke-linejoin="round" stroke="#286bcc"/><path fill="none" marker-end="url(#id11)" d="M792.1776695296637 383.6776695296637 Q835.7476649844492 408.49656099495724 864.5 408.0 Q890.5891721839553 407.5494325838139 929.3223304703363 383.6776695296637" stroke-width="2.0" stroke-linejoin="round" stroke="#286bcc"/><path fill="none" marker-end="url(#id12)" d="M756.8223304703363 348.32233047033634 Q718.9759766666342 324.40162745961976 693.5 324.0 Q665.7313453702922 323.56222859041185 623.6776695296637 348.32233047033634" stroke-width="2.0" stroke-linejoin="round" stroke="#286bcc"/><path fill="none" marker-end="url(#id13)" d="M929.3223304703363 348.32233047033634 Q889.6413948533436 322.2927017205791 863.0 322.0 Q834.7901514697716 321.6900661077421 792.1776695296637 348.32233047033634" stroke-width="2.0" stroke-linejoin="round" stroke="#286bcc"/><path fill="none" marker-end="url(#id14)" d="M606.0 391.0 Q719.5285122282527 461.5567502832495 793.5 459.0 Q855.7657536979289 456.8478466744488 947.0 391.0" stroke-width="2.0" stroke-linejoin="round" stroke="#286bcc"/><g transform="translate(115.0 340.5)"><path fill="#5389d6" id="id16" fill-opacity="1.0" d="M50.0 25.0 Q50.0 35.354843 42.678 42.67725 Q35.35565 50.0 25.0 50.0 Q14.64475 50.0 7.3223763 42.677624 Q0.0 35.35525 0.0 25.0 Q0.0 14.64475 7.3223753 7.3223763 Q14.64475 0.0 25.0 0.0 Q35.355827 0.0 42.678 7.3223753 Q50.0 14.644578 50.0 25.0 L50.0 25.0z" stroke="none"/><g transform="translate(6.921999931335449 7.961000442504883)"><clipPath id="id17"><path d="M0 0 L36.15999984741211 0 L36.15999984741211 33.847999572753906 L0 33.847999572753906z"/></clipPath><text font-size="22" clip-path="url(#id17)" text-decoration="none" fill="#ffffff" font-family="Arial,Arial" font-style="normal" font-weight="bold"><tspan x="3.0" xml:space="preserve" y="24.423999786376953" textLength="30.0">.33</tspan></text></g></g><g transform="translate(283.5 340.5)"><path fill="#5389d6" id="id19" fill-opacity="1.0" d="M50.0 25.0 Q50.0 35.354843 42.678 42.67725 Q35.35565 50.0 25.0 50.0 Q14.64475 50.0 7.3223763 42.677624 Q0.0 35.35525 0.0 25.0 Q0.0 14.64475 7.3223753 7.3223763 Q14.64475 0.0 25.0 0.0 Q35.355827 0.0 42.678 7.3223753 Q50.0 14.644578 50.0 25.0 L50.0 25.0z" stroke="none"/><g transform="translate(6.921999931335449 7.961000442504883)"><clipPath id="id20"><path d="M0 0 L36.15999984741211 0 L36.15999984741211 33.847999572753906 L0 33.847999572753906z"/></clipPath><text font-size="22" clip-path="url(#id20)" text-decoration="none" fill="#ffffff" font-family="Arial,Arial" font-style="normal" font-weight="bold"><tspan x="3.0" xml:space="preserve" y="24.423999786376953" textLength="30.0">.33</tspan></text></g></g><g transform="translate(456.0 340.5)"><path fill="#5389d6" id="id22" fill-opacity="1.0" d="M50.0 25.0 Q50.0 35.354843 42.678 42.67725 Q35.35565 50.0 25.0 50.0 Q14.64475 50.0 7.3223763 42.677624 Q0.0 35.35525 0.0 25.0 Q0.0 14.64475 7.3223753 7.3223763 Q14.64475 0.0 25.0 0.0 Q35.355827 0.0 42.678 7.3223753 Q50.0 14.644578 50.0 25.0 L50.0 25.0z" stroke="none"/><g transform="translate(6.921999931335449 7.961000442504883)"><clipPath id="id23"><path d="M0 0 L36.15999984741211 0 L36.15999984741211 33.847999572753906 L0 33.847999572753906z"/></clipPath><text font-size="22" clip-path="url(#id23)" text-decoration="none" fill="#ffffff" font-family="Arial,Arial" font-style="normal" font-weight="bold"><tspan x="3.0" xml:space="preserve" y="24.423999786376953" textLength="30.0">.33</tspan></text></g></g><path fill="none" marker-end="url(#id24)" d="M157.6776695296637 383.1776695296637 Q196.81312996694058 407.341468410926 223.0 407.5 Q250.06904255688247 407.66387213614445 290.82233047033634 383.1776695296637" stroke-width="2.0" stroke-linejoin="round" stroke="#286bcc"/><path fill="none" marker-end="url(#id25)" d="M326.1776695296637 383.1776695296637 Q369.7476649844491 407.9965609949572 398.5 407.5 Q424.5891721839555 407.0494325838138 463.32233047033634 383.1776695296637" stroke-width="2.0" stroke-linejoin="round" stroke="#286bcc"/><path fill="none" marker-end="url(#id26)" d="M290.82233047033634 347.82233047033634 Q252.9759766666341 323.9016274596197 227.5 323.5 Q199.73134537029208 323.0622285904118 157.6776695296637 347.82233047033634" stroke-width="2.0" stroke-linejoin="round" stroke="#286bcc"/><path fill="none" marker-end="url(#id27)" d="M463.32233047033634 347.82233047033634 Q423.64139485334374 321.7927017205791 397.0 321.5 Q368.7901514697716 321.19006610774215 326.1776695296637 347.82233047033634" stroke-width="2.0" stroke-linejoin="round" stroke="#286bcc"/><path fill="none" marker-end="url(#id28)" d="M140.0 390.5 Q253.52851222825265 461.0567502832496 327.5 458.5 Q389.76575369792886 456.3478466744488 481.0 390.5" stroke-width="2.0" stroke-linejoin="round" stroke="#286bcc"/><g transform="translate(198.0 300.0)"><clipPath id="id29"><path d="M0 0 L34.0 0 L34.0 27.5 L0 27.5z"/></clipPath><text font-size="20" clip-path="url(#id29)" text-decoration="none" fill="#ffffff" font-family="Arial,Arial" font-style="normal" font-weight="bold"><tspan x="2.0" xml:space="preserve" y="20.0" textLength="28.0">.17</tspan></text></g><g transform="translate(241.82905544147846 240.5)"><path fill-opacity="1.0" fill="#5389d6" stroke-linejoin="round" id="id31" d="M141.34188911704302 51.434426229508226 L0.0 51.434426229508226 L0.0 0.0 L141.34188911704302 0.0 L141.34188911704302 51.434426229508226z" stroke="#5389d6" stroke-width="1.0"/><g transform="translate(1.0 1.0)"><clipPath id="id32"><path d="M0 0 L139.34188911704322 0 L139.34188911704322 49.434426229508176 L0 49.434426229508176z"/></clipPath><text font-size="16" clip-path="url(#id32)" text-decoration="none" fill="#ffffff" font-family="Arial,Arial" font-style="normal" font-weight="bold"><tspan x="45.0" xml:space="preserve" y="30.217213114754088" textLength="48.0">Step 0</tspan></text></g></g><g transform="translate(207.82905544147846 378.8586065573771)"><clipPath id="id33"><path d="M0 0 L34.0 0 L34.0 27.5 L0 27.5z"/></clipPath><text font-size="20" clip-path="url(#id33)" text-decoration="none" fill="#ffffff" font-family="Arial,Arial" font-style="normal" font-weight="bold"><tspan x="2.0" xml:space="preserve" y="20.0" textLength="28.0">.17</tspan></text></g><g transform="translate(383.1709445585217 376.75)"><clipPath id="id34"><path d="M0 0 L34.0 0 L34.0 27.5 L0 27.5z"/></clipPath><text font-size="20" clip-path="url(#id34)" text-decoration="none" fill="#ffffff" font-family="Arial,Arial" font-style="normal" font-weight="bold"><tspan x="2.0" xml:space="preserve" y="20.0" textLength="28.0">.17</tspan></text></g><g transform="translate(422.0 300.0)"><clipPath id="id35"><path d="M0 0 L34.0 0 L34.0 27.5 L0 27.5z"/></clipPath><text font-size="20" clip-path="url(#id35)" text-decoration="none" fill="#ffffff" font-family="Arial,Arial" font-style="normal" font-weight="bold"><tspan x="2.0" xml:space="preserve" y="20.0" textLength="28.0">.33</tspan></text></g><g transform="translate(295.4999999999999 433.0)"><clipPath id="id36"><path d="M0 0 L34.0 0 L34.0 27.5 L0 27.5z"/></clipPath><text font-size="20" clip-path="url(#id36)" text-decoration="none" fill="#ffffff" font-family="Arial,Arial" font-style="normal" font-weight="bold"><tspan x="2.0" xml:space="preserve" y="20.0" textLength="28.0">.17</tspan></text></g><g transform="translate(102.0 535.717213114754)"><path fill="none" d="M421.0000000000002 225.28278688524563 L0.0 225.28278688524563 L0.0 0.0 L421.0000000000002 0.0 L421.0000000000002 225.28278688524563z" stroke-dasharray="6.0 6.0" stroke-width="2.0" stroke-linejoin="round" stroke="#5389d6"/><g transform="translate(1.0 1.0)"><clipPath id="id37"><path d="M0 0 L418.9999999999998 0 L418.9999999999998 223.28278688524597 L0 223.28278688524597z"/></clipPath><text font-size="12" clip-path="url(#id37)" text-decoration="none" fill="#000000" font-family="Arial,Arial" font-style="normal" font-weight="normal"/></g></g><g transform="translate(115.0 610.0)"><path fill="#5389d6" id="id39" fill-opacity="1.0" d="M50.0 25.0 Q50.0 35.354843 42.678 42.67725 Q35.35565 50.0 25.0 50.0 Q14.64475 50.0 7.3223763 42.677624 Q0.0 35.35525 0.0 25.0 Q0.0 14.64475 7.3223753 7.3223763 Q14.64475 0.0 25.0 0.0 Q35.355827 0.0 42.678 7.3223753 Q50.0 14.644578 50.0 25.0 L50.0 25.0z" stroke="none"/><g transform="translate(6.921999931335449 7.961000442504883)"><clipPath id="id40"><path d="M0 0 L36.15999984741211 0 L36.15999984741211 33.847999572753906 L0 33.847999572753906z"/></clipPath><text font-size="22" clip-path="url(#id40)" text-decoration="none" fill="#ffffff" font-family="Arial,Arial" font-style="normal" font-weight="bold"><tspan x="3.0" xml:space="preserve" y="24.423999786376953" textLength="30.0">.17</tspan></text></g></g><g transform="translate(283.5 610.0)"><path fill="#5389d6" id="id42" fill-opacity="1.0" d="M50.0 25.0 Q50.0 35.354843 42.678 42.67725 Q35.35565 50.0 25.0 50.0 Q14.64475 50.0 7.3223763 42.677624 Q0.0 35.35525 0.0 25.0 Q0.0 14.64475 7.3223753 7.3223763 Q14.64475 0.0 25.0 0.0 Q35.355827 0.0 42.678 7.3223753 Q50.0 14.644578 50.0 25.0 L50.0 25.0z" stroke="none"/><g transform="translate(6.921999931335449 7.961000442504883)"><clipPath id="id43"><path d="M0 0 L36.15999984741211 0 L36.15999984741211 33.847999572753906 L0 33.847999572753906z"/></clipPath><text font-size="22" clip-path="url(#id43)" text-decoration="none" fill="#ffffff" font-family="Arial,Arial" font-style="normal" font-weight="bold"><tspan x="3.0" xml:space="preserve" y="24.423999786376953" textLength="30.0">.50</tspan></text></g></g><g transform="translate(456.0 610.0)"><path fill="#5389d6" id="id45" fill-opacity="1.0" d="M50.0 25.0 Q50.0 35.354843 42.678 42.67725 Q35.35565 50.0 25.0 50.0 Q14.64475 50.0 7.3223763 42.677624 Q0.0 35.35525 0.0 25.0 Q0.0 14.64475 7.3223753 7.3223763 Q14.64475 0.0 25.0 0.0 Q35.355827 0.0 42.678 7.3223753 Q50.0 14.644578 50.0 25.0 L50.0 25.0z" stroke="none"/><g transform="translate(6.921999931335449 7.961000442504883)"><clipPath id="id46"><path d="M0 0 L36.15999984741211 0 L36.15999984741211 33.847999572753906 L0 33.847999572753906z"/></clipPath><text font-size="22" clip-path="url(#id46)" text-decoration="none" fill="#ffffff" font-family="Arial,Arial" font-style="normal" font-weight="bold"><tspan x="3.0" xml:space="preserve" y="24.423999786376953" textLength="30.0">.34</tspan></text></g></g><path fill="none" marker-end="url(#id47)" d="M157.6776695296637 652.6776695296637 Q196.81312996694055 676.8414684109259 223.00000000000003 677.0 Q250.06904255688247 677.1638721361444 290.82233047033634 652.6776695296637" stroke-width="2.0" stroke-linejoin="round" stroke="#286bcc"/><path fill="none" marker-end="url(#id48)" d="M326.1776695296637 652.6776695296637 Q369.7476649844492 677.4965609949572 398.5 677.0 Q424.5891721839555 676.5494325838139 463.32233047033634 652.6776695296637" stroke-width="2.0" stroke-linejoin="round" stroke="#286bcc"/><path fill="none" marker-end="url(#id49)" d="M290.82233047033634 617.3223304703363 Q252.97597666663412 593.4016274596198 227.50000000000003 593.0 Q199.73134537029208 592.5622285904119 157.6776695296637 617.3223304703363" stroke-width="2.0" stroke-linejoin="round" stroke="#286bcc"/><path fill="none" marker-end="url(#id50)" d="M463.32233047033634 617.3223304703363 Q423.6413948533438 591.292701720579 397.0 591.0 Q368.7901514697716 590.690066107742 326.1776695296637 617.3223304703363" stroke-width="2.0" stroke-linejoin="round" stroke="#286bcc"/><path fill="none" marker-end="url(#id51)" d="M140.0 660.0 Q253.5285122282527 730.5567502832495 327.5 728.0 Q389.76575369792886 725.8478466744488 481.0 660.0" stroke-width="2.0" stroke-linejoin="round" stroke="#286bcc"/><g transform="translate(198.0 569.5)"><clipPath id="id52"><path d="M0 0 L34.0 0 L34.0 27.5 L0 27.5z"/></clipPath><text font-size="20" clip-path="url(#id52)" text-decoration="none" fill="#ffffff" font-family="Arial,Arial" font-style="normal" font-weight="bold"><tspan x="2.0" xml:space="preserve" y="20.0" textLength="28.0">.25</tspan></text></g><g transform="translate(241.82905544147843 510.0)"><path fill-opacity="1.0" fill="#5389d6" stroke-linejoin="round" id="id54" d="M141.34188911704302 51.434426229508226 L0.0 51.434426229508226 L0.0 0.0 L141.34188911704302 0.0 L141.34188911704302 51.434426229508226z" stroke="#5389d6" stroke-width="1.0"/><g transform="translate(1.0 1.0)"><clipPath id="id55"><path d="M0 0 L139.34188911704325 0 L139.34188911704325 49.434426229508176 L0 49.434426229508176z"/></clipPath><text font-size="16" clip-path="url(#id55)" text-decoration="none" fill="#ffffff" font-family="Arial,Arial" font-style="normal" font-weight="bold"><tspan x="45.0" xml:space="preserve" y="30.217213114754088" textLength="48.0">Step 1</tspan></text></g></g><g transform="translate(207.82905544147843 648.358606557377)"><clipPath id="id56"><path d="M0 0 L34.0 0 L34.0 27.5 L0 27.5z"/></clipPath><text font-size="20" clip-path="url(#id56)" text-decoration="none" fill="#ffffff" font-family="Arial,Arial" font-style="normal" font-weight="bold"><tspan x="2.0" xml:space="preserve" y="20.0" textLength="28.0">.09</tspan></text></g><g transform="translate(383.1709445585217 646.25)"><clipPath id="id57"><path d="M0 0 L34.0 0 L34.0 27.5 L0 27.5z"/></clipPath><text font-size="20" clip-path="url(#id57)" text-decoration="none" fill="#ffffff" font-family="Arial,Arial" font-style="normal" font-weight="bold"><tspan x="2.0" xml:space="preserve" y="20.0" textLength="28.0">.25</tspan></text></g><g transform="translate(422.0 569.5)"><clipPath id="id58"><path d="M0 0 L34.0 0 L34.0 27.5 L0 27.5z"/></clipPath><text font-size="20" clip-path="url(#id58)" text-decoration="none" fill="#ffffff" font-family="Arial,Arial" font-style="normal" font-weight="bold"><tspan x="2.0" xml:space="preserve" y="20.0" textLength="28.0">.34</tspan></text></g><g transform="translate(295.4999999999999 702.5)"><clipPath id="id59"><path d="M0 0 L34.0 0 L34.0 27.5 L0 27.5z"/></clipPath><text font-size="20" clip-path="url(#id59)" text-decoration="none" fill="#ffffff" font-family="Arial,Arial" font-style="normal" font-weight="bold"><tspan x="2.0" xml:space="preserve" y="20.0" textLength="28.0">.09</tspan></text></g><g transform="translate(568.0000000000001 535.217213114754)"><path fill="none" d="M421.0000000000002 225.28278688524563 L0.0 225.28278688524563 L0.0 0.0 L421.0000000000002 0.0 L421.0000000000002 225.28278688524563z" stroke-dasharray="6.0 6.0" stroke-width="2.0" stroke-linejoin="round" stroke="#5389d6"/><g transform="translate(1.0 1.0)"><clipPath id="id60"><path d="M0 0 L418.9999999999998 0 L418.9999999999998 223.28278688524597 L0 223.28278688524597z"/></clipPath><text font-size="12" clip-path="url(#id60)" text-decoration="none" fill="#000000" font-family="Arial,Arial" font-style="normal" font-weight="normal"/></g></g><g transform="translate(581.0000000000001 609.5)"><path fill="#5389d6" id="id62" fill-opacity="1.0" d="M50.0 25.0 Q50.0 35.354843 42.678 42.67725 Q35.35565 50.0 25.0 50.0 Q14.64475 50.0 7.3223763 42.677624 Q0.0 35.35525 0.0 25.0 Q0.0 14.64475 7.3223753 7.3223763 Q14.64475 0.0 25.0 0.0 Q35.355827 0.0 42.678 7.3223753 Q50.0 14.644578 50.0 25.0 L50.0 25.0z" stroke="none"/><g transform="translate(6.921999931335449 7.961000442504883)"><clipPath id="id63"><path d="M0 0 L36.15999984741211 0 L36.15999984741211 33.847999572753906 L0 33.847999572753906z"/></clipPath><text font-size="22" clip-path="url(#id63)" text-decoration="none" fill="#ffffff" font-family="Arial,Arial" font-style="normal" font-weight="bold"><tspan x="3.0" xml:space="preserve" y="24.423999786376953" textLength="30.0">.25</tspan></text></g></g><g transform="translate(749.5000000000001 609.5)"><path fill="#5389d6" id="id65" fill-opacity="1.0" d="M50.0 25.0 Q50.0 35.354843 42.678 42.67725 Q35.35565 50.0 25.0 50.0 Q14.64475 50.0 7.3223763 42.677624 Q0.0 35.35525 0.0 25.0 Q0.0 14.64475 7.3223753 7.3223763 Q14.64475 0.0 25.0 0.0 Q35.355827 0.0 42.678 7.3223753 Q50.0 14.644578 50.0 25.0 L50.0 25.0z" stroke="none"/><g transform="translate(6.921999931335449 7.961000442504883)"><clipPath id="id66"><path d="M0 0 L36.15999984741211 0 L36.15999984741211 33.847999572753906 L0 33.847999572753906z"/></clipPath><text font-size="22" clip-path="url(#id66)" text-decoration="none" fill="#ffffff" font-family="Arial,Arial" font-style="normal" font-weight="bold"><tspan x="3.0" xml:space="preserve" y="24.423999786376953" textLength="30.0">.43</tspan></text></g></g><g transform="translate(922.0000000000001 609.5)"><path fill="#5389d6" id="id68" fill-opacity="1.0" d="M50.0 25.0 Q50.0 35.354843 42.678 42.67725 Q35.35565 50.0 25.0 50.0 Q14.64475 50.0 7.3223763 42.677624 Q0.0 35.35525 0.0 25.0 Q0.0 14.64475 7.3223753 7.3223763 Q14.64475 0.0 25.0 0.0 Q35.355827 0.0 42.678 7.3223753 Q50.0 14.644578 50.0 25.0 L50.0 25.0z" stroke="none"/><g transform="translate(6.921999931335449 7.961000442504883)"><clipPath id="id69"><path d="M0 0 L36.15999984741211 0 L36.15999984741211 33.847999572753906 L0 33.847999572753906z"/></clipPath><text font-size="22" clip-path="url(#id69)" text-decoration="none" fill="#ffffff" font-family="Arial,Arial" font-style="normal" font-weight="bold"><tspan x="3.0" xml:space="preserve" y="24.423999786376953" textLength="30.0">.34</tspan></text></g></g><path fill="none" marker-end="url(#id70)" d="M623.6776695296638 652.1776695296637 Q662.8131299669407 676.3414684109258 689.0000000000002 676.5 Q716.0690425568826 676.6638721361443 756.8223304703364 652.1776695296637" stroke-width="2.0" stroke-linejoin="round" stroke="#286bcc"/><path fill="none" marker-end="url(#id71)" d="M792.1776695296638 652.1776695296637 Q835.7476649844493 676.9965609949573 864.5000000000001 676.5 Q890.5891721839555 676.049432583814 929.3223304703364 652.1776695296637" stroke-width="2.0" stroke-linejoin="round" stroke="#286bcc"/><path fill="none" marker-end="url(#id72)" d="M756.8223304703364 616.8223304703363 Q718.9759766666343 592.9016274596198 693.5000000000002 592.5 Q665.7313453702923 592.0622285904119 623.6776695296638 616.8223304703363" stroke-width="2.0" stroke-linejoin="round" stroke="#286bcc"/><path fill="none" marker-end="url(#id73)" d="M929.3223304703364 616.8223304703363 Q889.6413948533439 590.7927017205791 863.0000000000001 590.5 Q834.7901514697717 590.1900661077423 792.1776695296638 616.8223304703363" stroke-width="2.0" stroke-linejoin="round" stroke="#286bcc"/><path fill="none" marker-end="url(#id74)" d="M606.0000000000001 659.5 Q719.5285122282527 730.0567502832496 793.5000000000001 727.5 Q855.765753697929 725.3478466744488 947.0000000000001 659.5" stroke-width="2.0" stroke-linejoin="round" stroke="#286bcc"/><g transform="translate(664.0000000000001 569.0)"><clipPath id="id75"><path d="M0 0 L34.0 0 L34.0 27.5 L0 27.5z"/></clipPath><text font-size="20" clip-path="url(#id75)" text-decoration="none" fill="#ffffff" font-family="Arial,Arial" font-style="normal" font-weight="bold"><tspan x="2.0" xml:space="preserve" y="20.0" textLength="28.0">.22</tspan></text></g><g transform="translate(707.8290554414785 509.5)"><path fill-opacity="1.0" fill="#5389d6" stroke-linejoin="round" id="id77" d="M141.34188911704302 51.434426229508226 L0.0 51.434426229508226 L0.0 0.0 L141.34188911704302 0.0 L141.34188911704302 51.434426229508226z" stroke="#5389d6" stroke-width="1.0"/><g transform="translate(1.0 1.0)"><clipPath id="id78"><path d="M0 0 L139.34188911704325 0 L139.34188911704325 49.434426229508176 L0 49.434426229508176z"/></clipPath><text font-size="16" clip-path="url(#id78)" text-decoration="none" fill="#ffffff" font-family="Arial,Arial" font-style="normal" font-weight="bold"><tspan x="45.0" xml:space="preserve" y="30.217213114754088" textLength="48.0">Step 2</tspan></text></g></g><g transform="translate(673.8290554414785 647.858606557377)"><clipPath id="id79"><path d="M0 0 L34.0 0 L34.0 27.5 L0 27.5z"/></clipPath><text font-size="20" clip-path="url(#id79)" text-decoration="none" fill="#ffffff" font-family="Arial,Arial" font-style="normal" font-weight="bold"><tspan x="2.0" xml:space="preserve" y="20.0" textLength="28.0">.13</tspan></text></g><g transform="translate(849.1709445585218 645.75)"><clipPath id="id80"><path d="M0 0 L34.0 0 L34.0 27.5 L0 27.5z"/></clipPath><text font-size="20" clip-path="url(#id80)" text-decoration="none" fill="#ffffff" font-family="Arial,Arial" font-style="normal" font-weight="bold"><tspan x="2.0" xml:space="preserve" y="20.0" textLength="28.0">.22</tspan></text></g><g transform="translate(888.0000000000001 569.0)"><clipPath id="id81"><path d="M0 0 L34.0 0 L34.0 27.5 L0 27.5z"/></clipPath><text font-size="20" clip-path="url(#id81)" text-decoration="none" fill="#ffffff" font-family="Arial,Arial" font-style="normal" font-weight="bold"><tspan x="2.0" xml:space="preserve" y="20.0" textLength="28.0">.34</tspan></text></g><g transform="translate(761.5 702.0)"><clipPath id="id82"><path d="M0 0 L34.0 0 L34.0 27.5 L0 27.5z"/></clipPath><text font-size="20" clip-path="url(#id82)" text-decoration="none" fill="#ffffff" font-family="Arial,Arial" font-style="normal" font-weight="bold"><tspan x="2.0" xml:space="preserve" y="20.0" textLength="28.0">.13</tspan></text></g><g transform="translate(568.0 266.7172131147541)"><path fill="none" d="M421.0000000000002 225.28278688524563 L0.0 225.28278688524563 L0.0 0.0 L421.0000000000002 0.0 L421.0000000000002 225.28278688524563z" stroke-dasharray="6.0 6.0" stroke-width="2.0" stroke-linejoin="round" stroke="#5389d6"/><g transform="translate(1.0 1.0)"><clipPath id="id83"><path d="M0 0 L418.9999999999998 0 L418.9999999999998 223.28278688524597 L0 223.28278688524597z"/></clipPath><text font-size="12" clip-path="url(#id83)" text-decoration="none" fill="#000000" font-family="Arial,Arial" font-style="normal" font-weight="normal"/></g></g><g transform="translate(707.8290554414784 241.0)"><path fill-opacity="1.0" fill="#5389d6" stroke-linejoin="round" id="id85" d="M141.34188911704302 51.434426229508226 L0.0 51.434426229508226 L0.0 0.0 L141.34188911704302 0.0 L141.34188911704302 51.434426229508226z" stroke="#5389d6" stroke-width="1.0"/><g transform="translate(1.0 1.0)"><clipPath id="id86"><path d="M0 0 L139.34188911704325 0 L139.34188911704325 49.434426229508176 L0 49.434426229508176z"/></clipPath><text font-size="16" clip-path="url(#id86)" text-decoration="none" fill="#ffffff" font-family="Arial,Arial" font-style="normal" font-weight="bold"><tspan x="50.0" xml:space="preserve" y="30.217213114754088" textLength="39.0">Input</tspan></text></g></g></g></svg>