<?xml version="1.0" encoding="UTF-8" standalone="no"?>
<svg
   xmlns:dc="http://purl.org/dc/elements/1.1/"
   xmlns:cc="http://creativecommons.org/ns#"
   xmlns:rdf="http://www.w3.org/1999/02/22-rdf-syntax-ns#"
   xmlns:svg="http://www.w3.org/2000/svg"
   xmlns="http://www.w3.org/2000/svg"
   xmlns:sodipodi="http://sodipodi.sourceforge.net/DTD/sodipodi-0.dtd"
   xmlns:inkscape="http://www.inkscape.org/namespaces/inkscape"
   version="1.1"
   x="0px"
   y="0px"
   viewBox="0 0 200 200"
   enable-background="new 0 0 100 100"
   xml:space="preserve"
   id="svg2"
   inkscape:version="0.48.4 r9939"
   width="100%"
   height="100%"
   sodipodi:docname="openDoor.svg"><metadata
     id="metadata16"><rdf:RDF><cc:Work
         rdf:about=""><dc:format>image/svg+xml</dc:format><dc:type
           rdf:resource="http://purl.org/dc/dcmitype/StillImage" /><dc:title></dc:title></cc:Work></rdf:RDF></metadata><defs
     id="defs14" /><sodipodi:namedview
     pagecolor="#ffffff"
     bordercolor="#666666"
     borderopacity="1"
     objecttolerance="10"
     gridtolerance="10"
     guidetolerance="10"
     inkscape:pageopacity="0"
     inkscape:pageshadow="2"
     inkscape:window-width="1855"
     inkscape:window-height="1056"
     id="namedview12"
     showgrid="false"
     fit-margin-top="0"
     fit-margin-left="0"
     fit-margin-right="0"
     fit-margin-bottom="0"
     inkscape:zoom="1.888"
     inkscape:cx="24.243222"
     inkscape:cy="84.322037"
     inkscape:window-x="65"
     inkscape:window-y="24"
     inkscape:window-maximized="1"
     inkscape:current-layer="svg2" /><path
     sodipodi:type="arc"
     style="fill:#78bc24;fill-opacity:1;stroke:none"
     id="path3765"
     sodipodi:cx="-202.86017"
     sodipodi:cy="-8.1567793"
     sodipodi:rx="101.16525"
     sodipodi:ry="88.453392"
     d="m -101.69492,-8.1567793 a 101.16525,88.453392 0 1 1 -202.3305,0 101.16525,88.453392 0 1 1 202.3305,0 z"
     transform="matrix(0.98848169,0,0,1.1305389,300.52356,109.22156)"
     inkscape:export-filename="/home/lrd900/code/presentations/iswc2015/imgs/openDoor.png"
     inkscape:export-xdpi="180"
     inkscape:export-ydpi="180" /><g
     id="g2993"
     transform="matrix(1.6920904,0,0,1.6920904,15.616115,10.628528)"
     style="fill:#f5f5f5"
     inkscape:export-filename="/home/lrd900/code/presentations/iswc2015/imgs/openDoor.png"
     inkscape:export-xdpi="180"
     inkscape:export-ydpi="180"><path
       id="path4"
       d="M 92.5,82.5 H 75 V 15 c 0,-1.4 -1.1,-2.5 -2.5,-2.5 h -45 C 26.1,12.5 25,13.6 25,15 V 82.5 H 7.5 c -3.2,0 -3.2,5 0,5 h 20 c 0.2,0 0.3,0 0.5,0 l 0,0 c 0,0 0,0 0,0 l 32.5,-6.2 c 1.2,-0.2 2,-1.3 2,-2.5 V 25 c 0,-1.2 -0.8,-2.2 -1.9,-2.4 L 38.7,17.5 H 70 V 85 c 0,1.4 1.1,2.5 2.5,2.5 h 20 c 3.2,0 3.2,-5 0,-5 z M 57.5,27 V 76.7 L 30,82 V 20.6 L 57.5,27 z"
       inkscape:connector-curvature="0"
       style="fill:#f5f5f5" /><circle
       id="circle6"
       r="2.5"
       cy="55"
       cx="52.5"
       sodipodi:cx="52.5"
       sodipodi:cy="55"
       sodipodi:rx="2.5"
       sodipodi:ry="2.5"
       d="m 55,55 c 0,1.380712 -1.119288,2.5 -2.5,2.5 -1.380712,0 -2.5,-1.119288 -2.5,-2.5 0,-1.380712 1.119288,-2.5 2.5,-2.5 1.380712,0 2.5,1.119288 2.5,2.5 z"
       style="fill:#f5f5f5" /></g></svg>